<svg width="284" height="284" viewBox="0 0 284 284" fill="none" xmlns="http://www.w3.org/2000/svg">
<g opacity="0.2" clip-path="url(#clip0_2234_8803)">
<path d="M142.097 0.000976562C63.5443 0.000976562 0 63.5453 0 142.098C0 220.457 63.5443 284.196 142.097 284.196C220.456 284.196 284.195 220.652 284.195 142.098C284 63.5453 220.456 0.000976562 142.097 0.000976562ZM142.097 275.035C68.6122 275.035 9.16129 215.584 9.16129 142.098C9.16129 68.6132 68.6122 9.16227 142.097 9.16227C215.583 9.16227 275.034 68.6132 275.034 142.098C275.034 215.389 215.388 275.035 142.097 275.035Z" fill="white"/>
<path d="M142.099 30.6035C80.6986 30.6035 30.7988 80.5033 30.7988 141.903C30.7988 203.304 80.6986 253.203 142.099 253.203C203.499 253.203 253.399 203.499 253.399 142.098C253.399 80.5033 203.499 30.6035 142.099 30.6035ZM142.099 236.245C90.0548 236.245 47.757 193.947 47.757 141.903C47.757 89.8595 90.0548 47.5616 142.099 47.5616C194.143 47.5616 236.441 89.8595 236.441 141.903C236.441 193.947 194.143 236.245 142.099 236.245Z" fill="white"/>
<path d="M142.098 79.5283C107.597 79.5283 79.5283 107.597 79.5283 142.098C79.5283 176.599 107.402 204.668 142.098 204.668C176.599 204.668 204.668 176.599 204.668 142.098C204.473 107.597 176.599 79.5283 142.098 79.5283ZM142.098 175.624C123.58 175.624 108.572 160.615 108.572 142.098C108.572 123.58 123.58 108.572 142.098 108.572C160.616 108.572 175.624 123.58 175.624 142.098C175.624 160.615 160.616 175.624 142.098 175.624Z" fill="white"/>
</g>
<defs>
<clipPath id="clip0_2234_8803">
<rect width="284" height="284" fill="white"/>
</clipPath>
</defs>
</svg>
