<svg width="187" height="137" viewBox="0 0 187 137" fill="none" xmlns="http://www.w3.org/2000/svg">
<g opacity="0.8" clip-path="url(#clip0_2234_8808)">
<path d="M5.3356 40.2654C5.3356 41.7848 4.19226 42.9244 2.6678 42.9244C1.14334 42.9244 0 41.7848 0 40.2654C0 38.746 1.14334 37.6064 2.6678 37.6064C4.19226 37.6064 5.3356 38.8726 5.3356 40.2654Z" fill="white"/>
<path d="M28.0753 40.2654C28.0753 41.7848 26.932 42.9244 25.4075 42.9244C23.8831 42.9244 22.7397 41.7848 22.7397 40.2654C22.7397 38.746 23.8831 37.6064 25.4075 37.6064C26.805 37.6064 28.0753 38.8726 28.0753 40.2654Z" fill="white"/>
<path d="M50.6881 40.2654C50.6881 41.7848 49.5448 42.9244 48.0203 42.9244C46.4959 42.9244 45.3525 41.7848 45.3525 40.2654C45.3525 38.746 46.4959 37.6064 48.0203 37.6064C49.5448 37.6064 50.6881 38.8726 50.6881 40.2654Z" fill="white"/>
<path d="M73.4279 40.2654C73.4279 41.7848 72.2845 42.9244 70.7601 42.9244C69.2356 42.9244 68.0923 41.7848 68.0923 40.2654C68.0923 38.746 69.2356 37.6064 70.7601 37.6064C72.2845 37.6064 73.4279 38.8726 73.4279 40.2654Z" fill="white"/>
<path d="M96.1676 40.2654C96.1676 41.7848 95.0243 42.9244 93.4998 42.9244C91.9754 42.9244 90.832 41.7848 90.832 40.2654C90.832 38.746 91.9754 37.6064 93.4998 37.6064C94.8972 37.6064 96.1676 38.8726 96.1676 40.2654Z" fill="white"/>
<path d="M118.908 40.2654C118.908 41.7848 117.765 42.9244 116.24 42.9244C114.716 42.9244 113.572 41.7848 113.572 40.2654C113.572 38.746 114.716 37.6064 116.24 37.6064C117.765 37.6064 118.908 38.8726 118.908 40.2654Z" fill="white"/>
<path d="M141.52 40.2654C141.52 41.7848 140.377 42.9244 138.852 42.9244C137.328 42.9244 136.185 41.7848 136.185 40.2654C136.185 38.746 137.328 37.6064 138.852 37.6064C140.377 37.6064 141.52 38.8726 141.52 40.2654Z" fill="white"/>
<path d="M164.26 40.2654C164.26 41.7848 163.117 42.9244 161.592 42.9244C160.068 42.9244 158.924 41.7848 158.924 40.2654C158.924 38.746 160.068 37.6064 161.592 37.6064C163.117 37.6064 164.26 38.8726 164.26 40.2654Z" fill="white"/>
<path d="M187 40.2654C187 41.7848 185.857 42.9244 184.332 42.9244C182.808 42.9244 181.665 41.7848 181.665 40.2654C181.665 38.746 182.808 37.6064 184.332 37.6064C185.73 37.6064 187 38.8726 187 40.2654Z" fill="white"/>
<path d="M5.3356 59.1316C5.3356 60.651 4.19226 61.7906 2.6678 61.7906C1.14334 61.7906 0 60.651 0 59.1316C0 57.6122 1.14334 56.4727 2.6678 56.4727C4.19226 56.4727 5.3356 57.6122 5.3356 59.1316Z" fill="white"/>
<path d="M28.0753 59.1316C28.0753 60.651 26.932 61.7906 25.4075 61.7906C23.8831 61.7906 22.7397 60.651 22.7397 59.1316C22.7397 57.6122 23.8831 56.4727 25.4075 56.4727C26.805 56.4727 28.0753 57.6122 28.0753 59.1316Z" fill="white"/>
<path d="M50.6881 59.1316C50.6881 60.651 49.5448 61.7906 48.0203 61.7906C46.4959 61.7906 45.3525 60.651 45.3525 59.1316C45.3525 57.6122 46.4959 56.4727 48.0203 56.4727C49.5448 56.4727 50.6881 57.6122 50.6881 59.1316Z" fill="white"/>
<path d="M73.4279 59.1316C73.4279 60.651 72.2845 61.7906 70.7601 61.7906C69.2356 61.7906 68.0923 60.651 68.0923 59.1316C68.0923 57.6122 69.2356 56.4727 70.7601 56.4727C72.2845 56.4727 73.4279 57.6122 73.4279 59.1316Z" fill="white"/>
<path d="M96.1676 59.1316C96.1676 60.651 95.0243 61.7906 93.4998 61.7906C91.9754 61.7906 90.832 60.651 90.832 59.1316C90.832 57.6122 91.9754 56.4727 93.4998 56.4727C94.8972 56.4727 96.1676 57.6122 96.1676 59.1316Z" fill="white"/>
<path d="M118.908 59.1316C118.908 60.651 117.765 61.7906 116.24 61.7906C114.716 61.7906 113.572 60.651 113.572 59.1316C113.572 57.6122 114.716 56.4727 116.24 56.4727C117.765 56.4727 118.908 57.6122 118.908 59.1316Z" fill="white"/>
<path d="M141.52 59.1316C141.52 60.651 140.377 61.7906 138.852 61.7906C137.328 61.7906 136.185 60.651 136.185 59.1316C136.185 57.6122 137.328 56.4727 138.852 56.4727C140.377 56.4727 141.52 57.6122 141.52 59.1316Z" fill="white"/>
<path d="M164.26 59.1316C164.26 60.651 163.117 61.7906 161.592 61.7906C160.068 61.7906 158.924 60.651 158.924 59.1316C158.924 57.6122 160.068 56.4727 161.592 56.4727C163.117 56.4727 164.26 57.6122 164.26 59.1316Z" fill="white"/>
<path d="M187 59.1316C187 60.651 185.857 61.7906 184.332 61.7906C182.808 61.7906 181.665 60.651 181.665 59.1316C181.665 57.6122 182.808 56.4727 184.332 56.4727C185.73 56.4727 187 57.6122 187 59.1316Z" fill="white"/>
<path d="M5.3356 2.65994C5.3356 4.17935 4.19226 5.31891 2.6678 5.31891C1.14334 5.31891 0 4.17935 0 2.65994C0 1.14053 1.14334 0.000976562 2.6678 0.000976562C4.19226 0.000976562 5.3356 1.14053 5.3356 2.65994Z" fill="white"/>
<path d="M28.0753 2.65994C28.0753 4.17935 26.932 5.31891 25.4075 5.31891C23.8831 5.31891 22.7397 4.17935 22.7397 2.65994C22.7397 1.14053 23.8831 0.000976562 25.4075 0.000976562C26.805 0.000976562 28.0753 1.14053 28.0753 2.65994Z" fill="white"/>
<path d="M50.6881 2.65994C50.6881 4.17935 49.5448 5.31891 48.0203 5.31891C46.4959 5.31891 45.3525 4.17935 45.3525 2.65994C45.3525 1.14053 46.6229 0.000976562 48.0203 0.000976562C49.5448 0.000976562 50.6881 1.14053 50.6881 2.65994Z" fill="white"/>
<path d="M73.4279 2.65994C73.4279 4.17935 72.2845 5.31891 70.7601 5.31891C69.2356 5.31891 68.0923 4.17935 68.0923 2.65994C68.0923 1.14053 69.3627 0.000976562 70.7601 0.000976562C72.1575 0.000976562 73.4279 1.14053 73.4279 2.65994Z" fill="white"/>
<path d="M96.1676 2.65994C96.1676 4.17935 95.0243 5.31891 93.4998 5.31891C91.9754 5.31891 90.832 4.17935 90.832 2.65994C90.832 1.14053 91.9754 0.000976562 93.4998 0.000976562C94.8972 0.000976562 96.1676 1.14053 96.1676 2.65994Z" fill="white"/>
<path d="M118.908 2.65994C118.908 4.17935 117.765 5.31891 116.24 5.31891C114.716 5.31891 113.572 4.17935 113.572 2.65994C113.572 1.14053 114.716 0.000976562 116.24 0.000976562C117.765 0.000976562 118.908 1.14053 118.908 2.65994Z" fill="white"/>
<path d="M141.52 2.65994C141.52 4.17935 140.377 5.31891 138.852 5.31891C137.328 5.31891 136.185 4.17935 136.185 2.65994C136.185 1.14053 137.328 0.000976562 138.852 0.000976562C140.377 0.000976562 141.52 1.14053 141.52 2.65994Z" fill="white"/>
<path d="M164.26 2.65994C164.26 4.17935 163.117 5.31891 161.592 5.31891C160.068 5.31891 158.924 4.17935 158.924 2.65994C158.924 1.14053 160.068 0.000976562 161.592 0.000976562C163.117 0.000976562 164.26 1.14053 164.26 2.65994Z" fill="white"/>
<path d="M187 2.65994C187 4.17935 185.857 5.31891 184.332 5.31891C182.808 5.31891 181.665 4.17935 181.665 2.65994C181.665 1.14053 182.808 0.000976562 184.332 0.000976562C185.73 0.000976562 187 1.14053 187 2.65994Z" fill="white"/>
<path d="M5.3356 21.5262C5.3356 23.0456 4.19226 24.1851 2.6678 24.1851C1.14334 24.1851 0 22.9189 0 21.5262C0 20.0067 1.14334 18.8672 2.6678 18.8672C4.19226 18.8672 5.3356 20.0067 5.3356 21.5262Z" fill="white"/>
<path d="M28.0753 21.5262C28.0753 23.0456 26.932 24.1851 25.4075 24.1851C23.8831 24.1851 22.7397 23.0456 22.7397 21.5262C22.7397 20.0067 23.8831 18.8672 25.4075 18.8672C26.805 18.8672 28.0753 20.0067 28.0753 21.5262Z" fill="white"/>
<path d="M50.6881 21.5262C50.6881 23.0456 49.5448 24.1851 48.0203 24.1851C46.4959 24.1851 45.3525 23.0456 45.3525 21.5262C45.3525 20.0067 46.4959 18.8672 48.0203 18.8672C49.5448 18.8672 50.6881 20.0067 50.6881 21.5262Z" fill="white"/>
<path d="M73.4279 21.5262C73.4279 23.0456 72.2845 24.1851 70.7601 24.1851C69.2356 24.1851 68.0923 23.0456 68.0923 21.5262C68.0923 20.0067 69.2356 18.8672 70.7601 18.8672C72.2845 18.8672 73.4279 20.0067 73.4279 21.5262Z" fill="white"/>
<path d="M96.1676 21.5262C96.1676 23.0456 95.0243 24.1851 93.4998 24.1851C91.9754 24.1851 90.832 23.0456 90.832 21.5262C90.832 20.0067 91.9754 18.8672 93.4998 18.8672C94.8972 18.8672 96.1676 20.0067 96.1676 21.5262Z" fill="white"/>
<path d="M118.908 21.5262C118.908 23.0456 117.765 24.1851 116.24 24.1851C114.716 24.1851 113.572 23.0456 113.572 21.5262C113.572 20.0067 114.716 18.8672 116.24 18.8672C117.765 18.8672 118.908 20.0067 118.908 21.5262Z" fill="white"/>
<path d="M141.52 21.5262C141.52 23.0456 140.377 24.1851 138.852 24.1851C137.328 24.1851 136.185 23.0456 136.185 21.5262C136.185 20.0067 137.328 18.8672 138.852 18.8672C140.377 18.8672 141.52 20.0067 141.52 21.5262Z" fill="white"/>
<path d="M164.26 21.5262C164.26 23.0456 163.117 24.1851 161.592 24.1851C160.068 24.1851 158.924 23.0456 158.924 21.5262C158.924 20.0067 160.068 18.8672 161.592 18.8672C163.117 18.8672 164.26 20.0067 164.26 21.5262Z" fill="white"/>
<path d="M187 21.5262C187 23.0456 185.857 24.1851 184.332 24.1851C182.808 24.1851 181.665 23.0456 181.665 21.5262C181.665 20.0067 182.808 18.8672 184.332 18.8672C185.73 18.8672 187 20.0067 187 21.5262Z" fill="white"/>
<path d="M5.3356 77.8709C5.3356 79.3903 4.19226 80.5298 2.6678 80.5298C1.14334 80.5298 0 79.3903 0 77.8709C0 76.3515 1.14334 75.2119 2.6678 75.2119C4.19226 75.2119 5.3356 76.4781 5.3356 77.8709Z" fill="white"/>
<path d="M28.0753 77.8709C28.0753 79.3903 26.932 80.5298 25.4075 80.5298C23.8831 80.5298 22.7397 79.3903 22.7397 77.8709C22.7397 76.3515 23.8831 75.2119 25.4075 75.2119C26.805 75.2119 28.0753 76.4781 28.0753 77.8709Z" fill="white"/>
<path d="M50.6881 77.8709C50.6881 79.3903 49.5448 80.5298 48.0203 80.5298C46.4959 80.5298 45.3525 79.3903 45.3525 77.8709C45.3525 76.3515 46.4959 75.2119 48.0203 75.2119C49.5448 75.2119 50.6881 76.4781 50.6881 77.8709Z" fill="white"/>
<path d="M73.4279 77.8709C73.4279 79.3903 72.2845 80.5298 70.7601 80.5298C69.2356 80.5298 68.0923 79.3903 68.0923 77.8709C68.0923 76.3515 69.2356 75.2119 70.7601 75.2119C72.2845 75.2119 73.4279 76.4781 73.4279 77.8709Z" fill="white"/>
<path d="M96.1676 77.8709C96.1676 79.3903 95.0243 80.5298 93.4998 80.5298C91.9754 80.5298 90.832 79.3903 90.832 77.8709C90.832 76.3515 91.9754 75.2119 93.4998 75.2119C94.8972 75.2119 96.1676 76.4781 96.1676 77.8709Z" fill="white"/>
<path d="M118.908 77.8709C118.908 79.3903 117.765 80.5298 116.24 80.5298C114.716 80.5298 113.572 79.3903 113.572 77.8709C113.572 76.3515 114.716 75.2119 116.24 75.2119C117.765 75.2119 118.908 76.4781 118.908 77.8709Z" fill="white"/>
<path d="M141.52 77.8709C141.52 79.3903 140.377 80.5298 138.852 80.5298C137.328 80.5298 136.185 79.3903 136.185 77.8709C136.185 76.3515 137.328 75.2119 138.852 75.2119C140.377 75.2119 141.52 76.4781 141.52 77.8709Z" fill="white"/>
<path d="M164.26 77.8709C164.26 79.3903 163.117 80.5298 161.592 80.5298C160.068 80.5298 158.924 79.3903 158.924 77.8709C158.924 76.3515 160.068 75.2119 161.592 75.2119C163.117 75.2119 164.26 76.4781 164.26 77.8709Z" fill="white"/>
<path d="M187 77.8709C187 79.3903 185.857 80.5298 184.332 80.5298C182.808 80.5298 181.665 79.3903 181.665 77.8709C181.665 76.3515 182.808 75.2119 184.332 75.2119C185.73 75.2119 187 76.4781 187 77.8709Z" fill="white"/>
<path d="M5.3356 96.7371C5.3356 98.2565 4.19226 99.396 2.6678 99.396C1.14334 99.396 0 98.2565 0 96.7371C0 95.2177 1.14334 94.0781 2.6678 94.0781C4.19226 94.0781 5.3356 95.2177 5.3356 96.7371Z" fill="white"/>
<path d="M28.0753 96.7371C28.0753 98.2565 26.932 99.396 25.4075 99.396C23.8831 99.396 22.7397 98.2565 22.7397 96.7371C22.7397 95.2177 23.8831 94.0781 25.4075 94.0781C26.805 94.0781 28.0753 95.2177 28.0753 96.7371Z" fill="white"/>
<path d="M50.6881 96.7371C50.6881 98.2565 49.5448 99.396 48.0203 99.396C46.4959 99.396 45.3525 98.2565 45.3525 96.7371C45.3525 95.2177 46.4959 94.0781 48.0203 94.0781C49.5448 94.0781 50.6881 95.2177 50.6881 96.7371Z" fill="white"/>
<path d="M70.7601 99.396C72.2335 99.396 73.4279 98.2056 73.4279 96.7371C73.4279 95.2686 72.2335 94.0781 70.7601 94.0781C69.2867 94.0781 68.0923 95.2686 68.0923 96.7371C68.0923 98.2056 69.2867 99.396 70.7601 99.396Z" fill="white"/>
<path d="M96.1676 96.7371C96.1676 98.2565 95.0243 99.396 93.4998 99.396C91.9754 99.396 90.832 98.2565 90.832 96.7371C90.832 95.2177 91.9754 94.0781 93.4998 94.0781C94.8972 94.0781 96.1676 95.2177 96.1676 96.7371Z" fill="white"/>
<path d="M118.908 96.7371C118.908 98.2565 117.765 99.396 116.24 99.396C114.716 99.396 113.572 98.2565 113.572 96.7371C113.572 95.2177 114.716 94.0781 116.24 94.0781C117.765 94.0781 118.908 95.2177 118.908 96.7371Z" fill="white"/>
<path d="M141.52 96.7371C141.52 98.2565 140.377 99.396 138.852 99.396C137.328 99.396 136.185 98.2565 136.185 96.7371C136.185 95.2177 137.328 94.0781 138.852 94.0781C140.377 94.0781 141.52 95.2177 141.52 96.7371Z" fill="white"/>
<path d="M161.592 99.396C163.065 99.396 164.26 98.2056 164.26 96.7371C164.26 95.2686 163.065 94.0781 161.592 94.0781C160.119 94.0781 158.924 95.2686 158.924 96.7371C158.924 98.2056 160.119 99.396 161.592 99.396Z" fill="white"/>
<path d="M187 96.7371C187 98.2565 185.857 99.396 184.332 99.396C182.808 99.396 181.665 98.2565 181.665 96.7371C181.665 95.2177 182.808 94.0781 184.332 94.0781C185.73 94.0781 187 95.2177 187 96.7371Z" fill="white"/>
<path d="M5.3356 115.602C5.3356 117.122 4.19226 118.261 2.6678 118.261C1.14334 118.261 0 117.122 0 115.602C0 114.083 1.14334 112.943 2.6678 112.943C4.19226 112.943 5.3356 114.083 5.3356 115.602Z" fill="white"/>
<path d="M28.0753 115.602C28.0753 117.122 26.932 118.261 25.4075 118.261C23.8831 118.261 22.7397 117.122 22.7397 115.602C22.7397 114.083 23.8831 112.943 25.4075 112.943C26.805 112.943 28.0753 114.083 28.0753 115.602Z" fill="white"/>
<path d="M50.6881 115.602C50.6881 117.122 49.5448 118.261 48.0203 118.261C46.4959 118.261 45.3525 117.122 45.3525 115.602C45.3525 114.083 46.4959 112.943 48.0203 112.943C49.5448 112.943 50.6881 114.083 50.6881 115.602Z" fill="white"/>
<path d="M73.4279 115.602C73.4279 117.122 72.2845 118.261 70.7601 118.261C69.2356 118.261 68.0923 117.122 68.0923 115.602C68.0923 114.083 69.2356 112.943 70.7601 112.943C72.2845 112.943 73.4279 114.083 73.4279 115.602Z" fill="white"/>
<path d="M96.1676 115.602C96.1676 117.122 95.0243 118.261 93.4998 118.261C91.9754 118.261 90.832 117.122 90.832 115.602C90.832 114.083 91.9754 112.943 93.4998 112.943C94.8972 112.943 96.1676 114.083 96.1676 115.602Z" fill="white"/>
<path d="M118.908 115.602C118.908 117.122 117.765 118.261 116.24 118.261C114.716 118.261 113.572 117.122 113.572 115.602C113.572 114.083 114.716 112.943 116.24 112.943C117.765 112.943 118.908 114.083 118.908 115.602Z" fill="white"/>
<path d="M141.52 115.602C141.52 117.122 140.377 118.261 138.852 118.261C137.328 118.261 136.185 117.122 136.185 115.602C136.185 114.083 137.328 112.943 138.852 112.943C140.377 112.943 141.52 114.083 141.52 115.602Z" fill="white"/>
<path d="M164.26 115.602C164.26 117.122 163.117 118.261 161.592 118.261C160.068 118.261 158.924 117.122 158.924 115.602C158.924 114.083 160.068 112.943 161.592 112.943C163.117 112.943 164.26 114.083 164.26 115.602Z" fill="white"/>
<path d="M187 115.602C187 117.122 185.857 118.261 184.332 118.261C182.808 118.261 181.665 117.122 181.665 115.602C181.665 114.083 182.808 112.943 184.332 112.943C185.73 112.943 187 114.083 187 115.602Z" fill="white"/>
<path d="M5.3356 134.342C5.3356 135.861 4.19226 137.001 2.6678 137.001C1.14334 137.001 0 135.861 0 134.342C0 132.822 1.14334 131.683 2.6678 131.683C4.19226 131.683 5.3356 132.949 5.3356 134.342Z" fill="white"/>
<path d="M28.0753 134.342C28.0753 135.861 26.932 137.001 25.4075 137.001C23.8831 137.001 22.7397 135.861 22.7397 134.342C22.7397 132.822 23.8831 131.683 25.4075 131.683C26.805 131.683 28.0753 132.949 28.0753 134.342Z" fill="white"/>
<path d="M50.6881 134.342C50.6881 135.861 49.5448 137.001 48.0203 137.001C46.4959 137.001 45.3525 135.861 45.3525 134.342C45.3525 132.822 46.4959 131.683 48.0203 131.683C49.5448 131.683 50.6881 132.949 50.6881 134.342Z" fill="white"/>
<path d="M73.4279 134.342C73.4279 135.861 72.2845 137.001 70.7601 137.001C69.2356 137.001 68.0923 135.861 68.0923 134.342C68.0923 132.822 69.2356 131.683 70.7601 131.683C72.2845 131.683 73.4279 132.949 73.4279 134.342Z" fill="white"/>
<path d="M96.1676 134.342C96.1676 135.861 95.0243 137.001 93.4998 137.001C91.9754 137.001 90.832 135.861 90.832 134.342C90.832 132.822 91.9754 131.683 93.4998 131.683C94.8972 131.683 96.1676 132.949 96.1676 134.342Z" fill="white"/>
<path d="M118.908 134.342C118.908 135.861 117.765 137.001 116.24 137.001C114.716 137.001 113.572 135.861 113.572 134.342C113.572 132.822 114.716 131.683 116.24 131.683C117.765 131.683 118.908 132.949 118.908 134.342Z" fill="white"/>
<path d="M141.52 134.342C141.52 135.861 140.377 137.001 138.852 137.001C137.328 137.001 136.185 135.861 136.185 134.342C136.185 132.822 137.328 131.683 138.852 131.683C140.377 131.683 141.52 132.949 141.52 134.342Z" fill="white"/>
<path d="M164.26 134.342C164.26 135.861 163.117 137.001 161.592 137.001C160.068 137.001 158.924 135.861 158.924 134.342C158.924 132.822 160.068 131.683 161.592 131.683C163.117 131.683 164.26 132.949 164.26 134.342Z" fill="white"/>
<path d="M187 134.342C187 135.861 185.857 137.001 184.332 137.001C182.808 137.001 181.665 135.861 181.665 134.342C181.665 132.822 182.808 131.683 184.332 131.683C185.73 131.683 187 132.949 187 134.342Z" fill="white"/>
</g>
<defs>
<clipPath id="clip0_2234_8808">
<rect width="187" height="137" fill="white"/>
</clipPath>
</defs>
</svg>
